<svg xmlns="http://www.w3.org/2000/svg" xmlns:xlink="http://www.w3.org/1999/xlink" contentStyleType="text/css" data-diagram-type="SEQUENCE" height="124px" preserveAspectRatio="none" style="width:77px;height:124px;background:#FFFFFF;" version="1.1" viewBox="0 0 77 124" width="77px" zoomAndPan="magnify"><defs/><g><g><title>a</title><rect fill="transparent" height="50.3516" width="8" x="11.8931" y="37.6094"/><line style="stroke:#181818;stroke-width:0.5;stroke-dasharray:5.0,5.0;" x1="15" x2="15" y1="37.6094" y2="87.9609"/></g><g><title>b</title><rect fill="transparent" height="50.3516" width="8" x="56.8467" y="37.6094"/><line style="stroke:#181818;stroke-width:0.5;stroke-dasharray:5.0,5.0;" x1="59.9536" x2="59.9536" y1="37.6094" y2="87.9609"/></g><rect fill="#E2E2F0" height="31.6094" rx="2.5" ry="2.5" style="stroke:#181818;stroke-width:0.5;" width="21.7861" x="5" y="5"/><text fill="#000000" font-family="sans-serif" font-size="14" lengthAdjust="spacing" textLength="7.7861" x="12" y="26.5332">a</text><rect fill="#E2E2F0" height="31.6094" rx="2.5" ry="2.5" style="stroke:#181818;stroke-width:0.5;" width="21.7861" x="5" y="86.9609"/><text fill="#000000" font-family="sans-serif" font-size="14" lengthAdjust="spacing" textLength="7.7861" x="12" y="108.4941">a</text><rect fill="#E2E2F0" height="31.6094" rx="2.5" ry="2.5" style="stroke:#181818;stroke-width:0.5;" width="21.7861" x="49.9536" y="5"/><text fill="#000000" font-family="sans-serif" font-size="14" lengthAdjust="spacing" textLength="7.7861" x="56.9536" y="26.5332">b</text><rect fill="#E2E2F0" height="31.6094" rx="2.5" ry="2.5" style="stroke:#181818;stroke-width:0.5;" width="21.7861" x="49.9536" y="86.9609"/><text fill="#000000" font-family="sans-serif" font-size="14" lengthAdjust="spacing" textLength="7.7861" x="56.9536" y="108.4941">b</text><polygon fill="#181818" points="48.8467,65.9609,58.8467,69.9609,48.8467,73.9609,52.8467,69.9609" style="stroke:#181818;stroke-width:1;"/><line style="stroke:#181818;stroke-width:1;" x1="15.8931" x2="54.8467" y1="69.9609" y2="69.9609"/><text fill="#000000" font-family="sans-serif" font-size="13" lengthAdjust="spacing" textLength="20.9536" x="22.8931" y="65.1045">test</text></g></svg>