<svg width="107.61874999999999px" height="120.8px" xmlns="http://www.w3.org/2000/svg" viewBox="196.190625 14.600000000000001 107.61874999999999 120.8" style="background: rgba(0, 0, 0, 0);" preserveAspectRatio="xMidYMid"><defs><linearGradient id="editing-outline-gradient" x1="-0.41354545764260087" x2="1.4135454576426008" y1="0.09326335692419985" y2="0.9067366430758002"><stop offset="0" stop-color="#ee4208"></stop><stop offset="1" stop-color="#4139ff"></stop></linearGradient><filter id="editing-outline" x="-100%" y="-100%" width="300%" height="300%"><feMorphology in="SourceGraphic" operator="dilate" radius="4" result="outline"></feMorphology><feComposite operator="out" in="outline" in2="SourceAlpha"></feComposite></filter></defs><g filter="url(#editing-outline)"><g transform="translate(218.19500756263733, 95.30500030517578)"><path d="M44.12-36.90L44.12 0L36.76 0L36.76-9.97L10.88-9.97L10.88 0L3.51 0L3.51-20.31L3.51-20.31Q3.51-24.75 5.04-28.49L5.04-28.49L5.04-28.49Q6.57-32.23 9.29-34.92L9.29-34.92L9.29-34.92Q12.01-37.61 15.72-39.11L15.72-39.11L15.72-39.11Q19.43-40.61 23.82-40.61L23.82-40.61L40.41-40.61L40.41-40.61Q41.18-40.61 41.86-40.33L41.86-40.33L41.86-40.33Q42.54-40.04 43.05-39.54L43.05-39.54L43.05-39.54Q43.56-39.03 43.84-38.35L43.84-38.35L43.84-38.35Q44.12-37.67 44.12-36.90L44.12-36.90ZM10.88-20.31L10.88-17.33L36.76-17.33L36.76-33.25L23.82-33.25L23.82-33.25Q23.48-33.25 22.39-33.15L22.39-33.15L22.39-33.15Q21.30-33.05 19.87-32.65L19.87-32.65L19.87-32.65Q18.44-32.26 16.85-31.44L16.85-31.44L16.85-31.44Q15.26-30.61 13.93-29.17L13.93-29.17L13.93-29.17Q12.60-27.73 11.74-25.56L11.74-25.56L11.74-25.56Q10.88-23.39 10.88-20.31L10.88-20.31ZM60.10-40.61L60.10 0L52.73 0L52.73-40.61L60.10-40.61Z" fill="url(#editing-outline-gradient)"></path></g></g><style>text {
  font-size: 64px;
  font-family: Arial Black;
  dominant-baseline: central;
  text-anchor: middle;
}</style></svg>